<svg width="84" height="77" viewBox="0 0 84 77" fill="none" xmlns="http://www.w3.org/2000/svg">
<path d="M73.9998 35C73.9998 52.6731 59.6729 67 41.9998 67C24.3267 67 9.99979 52.6731 9.99979 35C9.99979 17.3269 24.3267 3 41.9998 3C59.6729 3 73.9998 17.3269 73.9998 35Z" fill="#DCA16A"/>
<path fill-rule="evenodd" clip-rule="evenodd" d="M76.3701 35C76.3701 53.9822 60.982 69.3704 41.9998 69.3704C23.0175 69.3704 7.62941 53.9822 7.62941 35C7.62941 16.0178 23.0175 0.629639 41.9998 0.629639C60.982 0.629639 76.3701 16.0178 76.3701 35ZM41.9998 67C59.6729 67 73.9998 52.6731 73.9998 35C73.9998 17.3269 59.6729 3.00001 41.9998 3.00001C24.3267 3.00001 9.99978 17.3269 9.99978 35C9.99978 52.6731 24.3267 67 41.9998 67Z" fill="#C38144"/>
<path fill-rule="evenodd" clip-rule="evenodd" d="M12.3702 36.1853C11.7156 36.1853 11.185 35.6547 11.185 35.0001C11.185 17.9816 24.9812 4.1853 41.9998 4.1853C42.6543 4.1853 43.185 4.71593 43.185 5.37049C43.185 6.02505 42.6543 6.55567 41.9998 6.55567C26.2904 6.55567 13.5553 19.2907 13.5553 35.0001C13.5553 35.6547 13.0247 36.1853 12.3702 36.1853Z" fill="#F0B57F"/>
<path fill-rule="evenodd" clip-rule="evenodd" d="M71.6294 33.8147C72.284 33.8147 72.8146 34.3453 72.8146 34.9999C72.8146 52.0184 59.0183 65.8147 41.9998 65.8147C41.3452 65.8147 40.8146 65.2841 40.8146 64.6295C40.8146 63.975 41.3452 63.4443 41.9998 63.4443C57.7092 63.4443 70.4442 50.7093 70.4442 34.9999C70.4442 34.3453 70.9749 33.8147 71.6294 33.8147Z" fill="#CF945D"/>
<path d="M65.7035 35.0001C65.7035 48.0913 55.091 58.7038 41.9998 58.7038C28.9086 58.7038 18.2961 48.0913 18.2961 35.0001C18.2961 21.9089 28.9086 11.2964 41.9998 11.2964C55.091 11.2964 65.7035 21.9089 65.7035 35.0001Z" fill="#F7BA82"/>
<path fill-rule="evenodd" clip-rule="evenodd" d="M68.0739 35.0001C68.0739 49.4004 56.4001 61.0742 41.9998 61.0742C27.5995 61.0742 15.9257 49.4004 15.9257 35.0001C15.9257 20.5998 27.5995 8.92603 41.9998 8.92603C56.4001 8.92603 68.0739 20.5998 68.0739 35.0001ZM41.9998 58.7038C55.091 58.7038 65.7035 48.0913 65.7035 35.0001C65.7035 21.9089 55.091 11.2964 41.9998 11.2964C28.9086 11.2964 18.2961 21.9089 18.2961 35.0001C18.2961 48.0913 28.9086 58.7038 41.9998 58.7038Z" fill="#C38144"/>
<path fill-rule="evenodd" clip-rule="evenodd" d="M41.9998 55.1482C53.1273 55.1482 62.1479 46.1276 62.1479 35C62.1479 34.3455 62.6786 33.8148 63.3331 33.8148C63.9877 33.8148 64.5183 34.3455 64.5183 35C64.5183 47.4367 54.4364 57.5186 41.9998 57.5186C41.3452 57.5186 40.8146 56.9879 40.8146 56.3334C40.8146 55.6788 41.3452 55.1482 41.9998 55.1482Z" fill="#E6A66C"/>
<path fill-rule="evenodd" clip-rule="evenodd" d="M41.9998 14.8518C30.8723 14.8518 21.8516 23.8724 21.8516 35C21.8516 35.6545 21.321 36.1852 20.6664 36.1852C20.0119 36.1852 19.4813 35.6545 19.4813 35C19.4813 22.5633 29.5631 12.4814 41.9998 12.4814C42.6543 12.4814 43.185 13.0121 43.185 13.6666C43.185 14.3212 42.6543 14.8518 41.9998 14.8518Z" fill="#FFD5AE"/>
<path d="M5.77637 66.5528L2.72359 60.4472C2.39114 59.7823 2.87463 59 3.61802 59L17 59C17.5523 59 18 59.4477 18 60L18 74C18 74.5523 17.5523 75 17 75L3.61802 75C2.87463 75 2.39114 74.2177 2.72359 73.5528L5.77637 67.4472C5.91714 67.1657 5.91714 66.8343 5.77637 66.5528Z" fill="#C52229"/>
<path d="M78.2236 66.5528L81.2764 60.4472C81.6088 59.7823 81.1253 59 80.3819 59L67 59C66.4477 59 66 59.4477 66 60L66 74C66 74.5523 66.4477 75 67 75L80.3819 75C81.1253 75 81.6088 74.2177 81.2764 73.5528L78.2236 67.4472C78.0828 67.1657 78.0828 66.8343 78.2236 66.5528Z" fill="#C52229"/>
<path fill-rule="evenodd" clip-rule="evenodd" d="M3.76393 67L0.934753 61.3416C-0.0625917 59.347 1.38787 57 3.61803 57L17 57C18.6569 57 20 58.3431 20 60L20 74C20 75.6569 18.6569 77 17 77L3.61803 77C1.38787 77 -0.0625923 74.653 0.934753 72.6584L3.76393 67ZM3.98696 67.4461C3.98716 67.4465 3.98735 67.4468 3.98755 67.4472L4.88198 67L3.98753 67.4472L3.98696 67.4461ZM80.2361 67L83.0652 61.3416C84.0626 59.3469 82.6121 57 80.382 57L67 57C65.3431 57 64 58.3431 64 60L64 74C64 75.6569 65.3431 77 67 77L80.382 77C82.6121 77 84.0626 74.6531 83.0652 72.6584L80.2361 67ZM81.2764 60.4472L78.2236 66.5528C78.0828 66.8343 78.0828 67.1657 78.2236 67.4472L81.2764 73.5528C81.6088 74.2177 81.1253 75 80.382 75L67 75C66.4477 75 66 74.5523 66 74L66 60C66 59.4477 66.4477 59 67 59L80.382 59C81.1253 59 81.6088 59.7823 81.2764 60.4472ZM2.72361 60.4472L5.77639 66.5528C5.91716 66.8343 5.91716 67.1657 5.77639 67.4472L2.72361 73.5528C2.39116 74.2177 2.87465 75 3.61803 75L17 75C17.5523 75 18 74.5523 18 74L18 60C18 59.4477 17.5523 59 17 59L3.61803 59C2.87465 59 2.39116 59.7823 2.72361 60.4472Z" fill="#9B0F15"/>
<path fill-rule="evenodd" clip-rule="evenodd" d="M4.15399 59.9043C4.33712 59.6138 4.65654 59.4375 5 59.4375H9.25C9.80229 59.4375 10.25 59.8852 10.25 60.4375C10.25 60.9898 9.80229 61.4375 9.25 61.4375H6.58675L8.65214 65.756C8.89042 66.2543 8.67969 66.8513 8.18146 67.0896C7.68322 67.3279 7.08615 67.1172 6.84787 66.619L4.09787 60.869C3.94968 60.5591 3.97087 60.1949 4.15399 59.9043Z" fill="#DF3840"/>
<path d="M70 70L70 56C70 55.4477 69.5523 55 69 55L15 55C14.4477 55 14 55.4477 14 56L14 70C14 70.5523 14.4477 71 15 71L69 71C69.5523 71 70 70.5523 70 70Z" fill="#F1333B"/>
<path fill-rule="evenodd" clip-rule="evenodd" d="M72 56L72 70C72 71.6569 70.6568 73 69 73L15 73C13.3431 73 12 71.6569 12 70L12 56C12 54.3431 13.3431 53 15 53L69 53C70.6569 53 72 54.3431 72 56ZM70 56L70 70C70 70.5523 69.5523 71 69 71L15 71C14.4477 71 14 70.5523 14 70L14 56C14 55.4477 14.4477 55 15 55L69 55C69.5523 55 70 55.4477 70 56Z" fill="#9B0F15"/>
<path d="M67.2373 63.3798C66.6711 63.3798 66.212 62.9319 66.212 62.3795C66.212 61.827 66.6711 61.3792 67.2373 61.3792C67.8036 61.3792 68.2626 61.827 68.2626 62.3795C68.2626 62.9319 67.8036 63.3798 67.2373 63.3798Z" fill="#DB1B24"/>
<path d="M63.3361 62.9795C62.6318 62.9795 62.0607 62.4224 62.0607 61.7352C62.0607 61.048 62.6318 60.491 63.3361 60.491C64.0405 60.491 64.6115 61.048 64.6115 61.7352C64.6115 62.4224 64.0405 62.9795 63.3361 62.9795Z" fill="#DB1B24"/>
<path d="M65.0742 65.8244C64.722 65.8244 64.4365 65.5458 64.4365 65.2022C64.4365 64.8586 64.722 64.5801 65.0742 64.5801C65.4263 64.5801 65.7119 64.8586 65.7119 65.2022C65.7119 65.5458 65.4263 65.8244 65.0742 65.8244Z" fill="#DB1B24"/>
<path d="M63.9738 59.2443C63.6216 59.2443 63.3361 58.9657 63.3361 58.6221C63.3361 58.2785 63.6216 58 63.9738 58C64.326 58 64.6115 58.2785 64.6115 58.6221C64.6115 58.9657 64.326 59.2443 63.9738 59.2443Z" fill="#DB1B24"/>
<path d="M60.6228 65.2023C60.2706 65.2023 59.9851 64.9237 59.9851 64.5801C59.9851 64.2365 60.2706 63.958 60.6228 63.958C60.975 63.958 61.2605 64.2365 61.2605 64.5801C61.2605 64.9237 60.975 65.2023 60.6228 65.2023Z" fill="#DB1B24"/>
<path d="M59.9851 62.0014C59.6329 62.0014 59.3474 61.7228 59.3474 61.3792C59.3474 61.0356 59.6329 60.7571 59.9851 60.7571C60.3373 60.7571 60.6228 61.0356 60.6228 61.3792C60.6228 61.7228 60.3373 62.0014 59.9851 62.0014Z" fill="#DB1B24"/>
<path d="M55.6377 69.2182C55.2855 69.2182 55 68.9396 55 68.596C55 68.2524 55.2855 67.9739 55.6377 67.9739C55.9899 67.9739 56.2754 68.2524 56.2754 68.596C56.2754 68.9396 55.9899 69.2182 55.6377 69.2182Z" fill="#DB1B24"/>
<path d="M68.3252 66.8432C67.973 66.8432 67.6875 66.5646 67.6875 66.221C67.6875 65.8774 67.973 65.5989 68.3252 65.5989C68.6774 65.5989 68.9629 65.8774 68.9629 66.221C68.9629 66.5646 68.6774 66.8432 68.3252 66.8432Z" fill="#DB1B24"/>
<path d="M62.2983 68.2057C61.7251 68.2057 61.2605 67.7524 61.2605 67.1932C61.2605 66.634 61.7251 66.1807 62.2983 66.1807C62.8715 66.1807 63.3361 66.634 63.3361 67.1932C63.3361 67.7524 62.8715 68.2057 62.2983 68.2057Z" fill="#DB1B24"/>
<path d="M66.7497 69.2181C66.1765 69.2181 65.7119 68.7648 65.7119 68.2056C65.7119 67.6464 66.1765 67.1931 66.7497 67.1931C67.3228 67.1931 67.7875 67.6464 67.7875 68.2056C67.7875 68.7648 67.3228 69.2181 66.7497 69.2181Z" fill="#DB1B24"/>
<path d="M57.6719 67.2271C57.0988 67.2271 56.6341 66.7738 56.6341 66.2146C56.6341 65.6555 57.0988 65.2021 57.6719 65.2021C58.2451 65.2021 58.7097 65.6555 58.7097 66.2146C58.7097 66.7738 58.2451 67.2271 57.6719 67.2271Z" fill="#DB1B24"/>
<path d="M59.3474 69.5255C58.9953 69.5255 58.7098 69.247 58.7098 68.9034C58.7098 68.5598 58.9953 68.2812 59.3474 68.2812C59.6996 68.2812 59.9851 68.5598 59.9851 68.9034C59.9851 69.247 59.6996 69.5255 59.3474 69.5255Z" fill="#DB1B24"/>
<path fill-rule="evenodd" clip-rule="evenodd" d="M14.625 56.4375C14.625 55.8852 15.0727 55.4375 15.625 55.4375H53.125C53.6773 55.4375 54.125 55.8852 54.125 56.4375C54.125 56.9898 53.6773 57.4375 53.125 57.4375H16.625V64.4375C16.625 64.9898 16.1773 65.4375 15.625 65.4375C15.0727 65.4375 14.625 64.9898 14.625 64.4375V56.4375Z" fill="#FE666D"/>
<path d="M39.4279 32.8182H41.3662C42.2893 32.8182 42.9731 32.5875 43.4179 32.1259C43.8626 31.6644 44.085 31.0519 44.085 30.2883C44.085 29.5498 43.8626 28.9751 43.4179 28.5639C42.9815 28.1527 42.3774 27.9471 41.6054 27.9471C40.9089 27.9471 40.3257 28.1401 39.8558 28.5261C39.3859 28.9037 39.151 29.3988 39.151 30.0114H35.5134C35.5134 29.0548 35.7693 28.1989 36.2812 27.4437C36.8014 26.6801 37.5231 26.0843 38.4461 25.6563C39.3775 25.2284 40.4012 25.0144 41.5173 25.0144C43.4556 25.0144 44.9744 25.4801 46.0737 26.4115C47.1729 27.3346 47.7226 28.61 47.7226 30.2379C47.7226 31.077 47.4666 31.849 46.9548 32.5539C46.4429 33.2588 45.7716 33.8 44.9409 34.1776C45.973 34.5468 46.7408 35.1006 47.2443 35.8391C47.7561 36.5775 48.0121 37.4502 48.0121 38.4571C48.0121 40.085 47.4163 41.3898 46.2247 42.3716C45.0416 43.3534 43.4724 43.8443 41.5173 43.8443C39.688 43.8443 38.1902 43.3618 37.0238 42.3968C35.8658 41.4318 35.2868 40.1563 35.2868 38.5704H38.9244C38.9244 39.2585 39.1803 39.8207 39.6922 40.257C40.2124 40.6934 40.8502 40.9115 41.6054 40.9115C42.4697 40.9115 43.1452 40.685 43.6319 40.2319C44.1269 39.7703 44.3745 39.162 44.3745 38.4068C44.3745 36.5775 43.3675 35.6628 41.3536 35.6628H39.4279V32.8182Z" fill="#FFD5AE"/>
<path fill-rule="evenodd" clip-rule="evenodd" d="M37.3826 32.1595H35.5134C34.327 32.1595 33.3652 31.1977 33.3652 30.0113C33.3652 28.6471 33.7379 27.3671 34.503 26.2384L34.5059 26.2341C35.2663 25.118 36.3041 24.2816 37.5425 23.7074L37.5492 23.7043C38.7862 23.136 40.1195 22.8662 41.5173 22.8662C43.7859 22.8662 45.8557 23.413 47.4587 24.7695C49.1101 26.1581 49.8707 28.0723 49.8707 30.2379C49.8707 31.5486 49.4604 32.7593 48.6929 33.8161C48.6433 33.8845 48.5925 33.9518 48.5408 34.018C48.7098 34.2068 48.868 34.408 49.0143 34.6219C49.8017 35.7609 50.1602 37.0704 50.1602 38.4571C50.1602 40.6853 49.3087 42.6125 47.5938 44.0269C45.9305 45.4058 43.833 45.9924 41.5173 45.9924C39.2963 45.9924 37.2819 45.3983 35.6544 44.0519L35.6485 44.047C33.9723 42.6501 33.1386 40.7557 33.1386 38.5703C33.1386 37.384 34.1004 36.4222 35.2868 36.4222H37.4178C37.3285 36.1861 37.2797 35.9302 37.2797 35.6628V32.8182C37.2797 32.5884 37.3158 32.367 37.3826 32.1595ZM40.9344 37.8109C41.0237 38.047 41.0725 38.303 41.0725 38.5703C41.0725 38.5883 41.0733 38.602 41.0742 38.612C41.0759 38.6136 41.0779 38.6153 41.08 38.6172C41.1694 38.6903 41.303 38.7633 41.6054 38.7633C41.8531 38.7633 42.0007 38.7306 42.0771 38.7049C42.1407 38.6836 42.1616 38.6655 42.1671 38.6605M40.9344 37.8109H41.3536C41.8875 37.8109 42.1051 37.9027 42.1645 37.9346C42.1658 37.9379 42.1674 37.9418 42.169 37.9463C42.1891 38.0011 42.2263 38.1409 42.2263 38.4067C42.2263 38.5479 42.2037 38.6083 42.1991 38.6198C42.1962 38.6269 42.194 38.6304 42.192 38.6332C42.19 38.6362 42.1828 38.6458 42.1671 38.6605M46.2247 42.3716C47.4163 41.3898 48.012 40.085 48.012 38.4571C48.012 37.4501 47.7561 36.5774 47.2443 35.839C47.1614 35.7174 47.0713 35.6009 46.9741 35.4893C46.4808 34.9232 45.8031 34.486 44.9409 34.1776C45.7179 33.8244 46.3554 33.328 46.8534 32.6886C46.8879 32.6444 46.9216 32.5994 46.9548 32.5539C47.4666 31.849 47.7226 31.077 47.7226 30.2379C47.7226 28.61 47.1729 27.3345 46.0737 26.4115C44.9744 25.4801 43.4556 25.0144 41.5173 25.0144C40.4012 25.0144 39.3775 25.2283 38.4461 25.6563C37.523 26.0842 36.8014 26.68 36.2811 27.4436C36.1886 27.5802 36.1044 27.72 36.0286 27.8632C35.6851 28.5117 35.5134 29.2277 35.5134 30.0113H39.1509C39.1509 29.3988 39.3859 28.9037 39.8558 28.5261C40.3257 28.1401 40.9089 27.9471 41.6054 27.9471C42.3774 27.9471 42.9815 28.1527 43.4179 28.5638C43.8626 28.975 44.085 29.5498 44.085 30.2882C44.085 31.0518 43.8626 31.6644 43.4179 32.1259C42.9731 32.5874 42.2892 32.8182 41.3662 32.8182H39.4278V35.6628H41.3536C43.3675 35.6628 44.3745 36.5774 44.3745 38.4067C44.3745 39.1619 44.1269 39.7703 43.6318 40.2318C43.1452 40.6849 42.4697 40.9115 41.6054 40.9115C40.8502 40.9115 40.2124 40.6933 39.6922 40.257C39.1803 39.8206 38.9244 39.2584 38.9244 38.5703H35.2868C35.2868 39.3642 35.4319 40.0802 35.722 40.7185C36.0115 41.3554 36.4454 41.9148 37.0238 42.3967C38.1901 43.3617 39.688 43.8442 41.5173 43.8442C43.4724 43.8442 45.0416 43.3533 46.2247 42.3716ZM41.1962 30.67C41.2504 30.5017 41.2844 30.3242 41.2953 30.1406C41.3521 30.1172 41.446 30.0952 41.6054 30.0952C41.7766 30.0952 41.8773 30.1151 41.9261 30.1289C41.9315 30.1626 41.9368 30.2144 41.9368 30.2882C41.9368 30.4621 41.9116 30.5526 41.899 30.5873C41.896 30.5956 41.8932 30.6022 41.8906 30.6077C41.8887 30.6083 41.8867 30.609 41.8846 30.6097C41.8158 30.6329 41.6561 30.67 41.3662 30.67H41.1962Z" fill="#C28044"/>
</svg>
