<svg width="84" height="77" viewBox="0 0 84 77" fill="none" xmlns="http://www.w3.org/2000/svg">
<path d="M74 35C74 52.6731 59.6731 67 42 67C24.3269 67 10 52.6731 10 35C10 17.3269 24.3269 3 42 3C59.6731 3 74 17.3269 74 35Z" fill="#FFBB0D"/>
<path fill-rule="evenodd" clip-rule="evenodd" d="M76.3704 35C76.3704 53.9822 60.9822 69.3704 42 69.3704C23.0178 69.3704 7.62962 53.9822 7.62962 35C7.62962 16.0178 23.0178 0.629639 42 0.629639C60.9822 0.629639 76.3704 16.0178 76.3704 35ZM42 67C59.6731 67 74 52.6731 74 35C74 17.3269 59.6731 3.00001 42 3.00001C24.3269 3.00001 9.99999 17.3269 9.99999 35C9.99999 52.6731 24.3269 67 42 67Z" fill="#E89B05"/>
<path fill-rule="evenodd" clip-rule="evenodd" d="M12.3704 36.1853C11.7158 36.1853 11.1852 35.6547 11.1852 35.0001C11.1852 17.9816 24.9814 4.1853 42 4.1853C42.6546 4.1853 43.1852 4.71593 43.1852 5.37049C43.1852 6.02505 42.6546 6.55567 42 6.55567C26.2906 6.55567 13.5556 19.2907 13.5556 35.0001C13.5556 35.6547 13.0249 36.1853 12.3704 36.1853Z" fill="#E8AA0A"/>
<path fill-rule="evenodd" clip-rule="evenodd" d="M71.6296 33.8147C72.2842 33.8147 72.8148 34.3453 72.8148 34.9999C72.8148 52.0184 59.0186 65.8147 42 65.8147C41.3454 65.8147 40.8148 65.2841 40.8148 64.6295C40.8148 63.975 41.3454 63.4443 42 63.4443C57.7094 63.4443 70.4444 50.7093 70.4444 34.9999C70.4444 34.3453 70.9751 33.8147 71.6296 33.8147Z" fill="#E8AA0A"/>
<path d="M65.7037 35.0001C65.7037 48.0913 55.0912 58.7038 42 58.7038C28.9088 58.7038 18.2963 48.0913 18.2963 35.0001C18.2963 21.9089 28.9088 11.2964 42 11.2964C55.0912 11.2964 65.7037 21.9089 65.7037 35.0001Z" fill="#FFDD28"/>
<path fill-rule="evenodd" clip-rule="evenodd" d="M68.0741 35.0001C68.0741 49.4004 56.4003 61.0742 42 61.0742C27.5997 61.0742 15.9259 49.4004 15.9259 35.0001C15.9259 20.5998 27.5997 8.92603 42 8.92603C56.4003 8.92603 68.0741 20.5998 68.0741 35.0001ZM42 58.7038C55.0912 58.7038 65.7037 48.0913 65.7037 35.0001C65.7037 21.9089 55.0912 11.2964 42 11.2964C28.9088 11.2964 18.2963 21.9089 18.2963 35.0001C18.2963 48.0913 28.9088 58.7038 42 58.7038Z" fill="#E89B05"/>
<path fill-rule="evenodd" clip-rule="evenodd" d="M42 55.1482C53.1275 55.1482 62.1482 46.1276 62.1482 35C62.1482 34.3455 62.6788 33.8148 63.3333 33.8148C63.9879 33.8148 64.5185 34.3455 64.5185 35C64.5185 47.4367 54.4366 57.5186 42 57.5186C41.3454 57.5186 40.8148 56.9879 40.8148 56.3334C40.8148 55.6788 41.3454 55.1482 42 55.1482Z" fill="#ECC704"/>
<path fill-rule="evenodd" clip-rule="evenodd" d="M42 14.8518C30.8725 14.8518 21.8518 23.8724 21.8518 35C21.8518 35.6545 21.3212 36.1852 20.6667 36.1852C20.0121 36.1852 19.4815 35.6545 19.4815 35C19.4815 22.5633 29.5634 12.4814 42 12.4814C42.6546 12.4814 43.1852 13.0121 43.1852 13.6666C43.1852 14.3212 42.6546 14.8518 42 14.8518Z" fill="#FFEF9C"/>
<path d="M5.77662 66.5528L2.72384 60.4472C2.39139 59.7823 2.87488 59 3.61826 59L17.0002 59C17.5525 59 18.0002 59.4477 18.0002 60L18.0002 74C18.0002 74.5523 17.5525 75 17.0002 75L3.61826 75C2.87488 75 2.39139 74.2177 2.72384 73.5528L5.77662 67.4472C5.91739 67.1657 5.91739 66.8343 5.77662 66.5528Z" fill="#C52229"/>
<path d="M78.2238 66.5528L81.2766 60.4472C81.6091 59.7823 81.1256 59 80.3822 59L67.0002 59C66.4479 59 66.0002 59.4477 66.0002 60L66.0002 74C66.0002 74.5523 66.4479 75 67.0002 75L80.3822 75C81.1256 75 81.6091 74.2177 81.2766 73.5528L78.2238 67.4472C78.0831 67.1657 78.0831 66.8343 78.2238 66.5528Z" fill="#C52229"/>
<path fill-rule="evenodd" clip-rule="evenodd" d="M3.76414 67L0.934967 61.3416C-0.062378 59.347 1.38808 57 3.61825 57L17.0002 57C18.6571 57 20.0002 58.3431 20.0002 60L20.0002 74C20.0002 75.6569 18.6571 77 17.0002 77L3.61825 77C1.38808 77 -0.0623787 74.653 0.934966 72.6584L3.76414 67ZM3.98717 67.4461C3.98737 67.4465 3.98756 67.4468 3.98776 67.4472L4.88219 67L3.98775 67.4472L3.98717 67.4461ZM80.2363 67L83.0655 61.3416C84.0628 59.3469 82.6123 57 80.3822 57L67.0002 57C65.3434 57 64.0002 58.3431 64.0002 60L64.0002 74C64.0002 75.6569 65.3434 77 67.0002 77L80.3822 77C82.6123 77 84.0628 74.6531 83.0655 72.6584L80.2363 67ZM81.2766 60.4472L78.2238 66.5528C78.0831 66.8343 78.0831 67.1657 78.2238 67.4472L81.2766 73.5528C81.6091 74.2177 81.1256 75 80.3822 75L67.0002 75C66.4479 75 66.0002 74.5523 66.0002 74L66.0002 60C66.0002 59.4477 66.4479 59 67.0002 59L80.3822 59C81.1256 59 81.6091 59.7823 81.2766 60.4472ZM2.72382 60.4472L5.7766 66.5528C5.91737 66.8343 5.91737 67.1657 5.7766 67.4472L2.72382 73.5528C2.39137 74.2177 2.87486 75 3.61825 75L17.0002 75C17.5525 75 18.0002 74.5523 18.0002 74L18.0002 60C18.0002 59.4477 17.5525 59 17.0002 59L3.61825 59C2.87486 59 2.39137 59.7823 2.72382 60.4472Z" fill="#9B0F15"/>
<path fill-rule="evenodd" clip-rule="evenodd" d="M4.15421 59.9043C4.33733 59.6138 4.65676 59.4375 5.00022 59.4375H9.25022C9.8025 59.4375 10.2502 59.8852 10.2502 60.4375C10.2502 60.9898 9.8025 61.4375 9.25022 61.4375H6.58696L8.65235 65.756C8.89064 66.2543 8.67991 66.8513 8.18167 67.0896C7.68344 67.3279 7.08637 67.1172 6.84808 66.619L4.09808 60.869C3.94989 60.5591 3.97109 60.1949 4.15421 59.9043Z" fill="#DF3840"/>
<path d="M70.0002 70L70.0002 56C70.0002 55.4477 69.5525 55 69.0002 55L15.0002 55C14.4479 55 14.0002 55.4477 14.0002 56L14.0002 70C14.0002 70.5523 14.4479 71 15.0002 71L69.0002 71C69.5525 71 70.0002 70.5523 70.0002 70Z" fill="#F1333B"/>
<path fill-rule="evenodd" clip-rule="evenodd" d="M72.0002 56L72.0002 70C72.0002 71.6569 70.6571 73 69.0002 73L15.0002 73C13.3434 73 12.0002 71.6569 12.0002 70L12.0002 56C12.0002 54.3431 13.3434 53 15.0002 53L69.0002 53C70.6571 53 72.0002 54.3431 72.0002 56ZM70.0002 56L70.0002 70C70.0002 70.5523 69.5525 71 69.0002 71L15.0002 71C14.4479 71 14.0002 70.5523 14.0002 70L14.0002 56C14.0002 55.4477 14.4479 55 15.0002 55L69.0002 55C69.5525 55 70.0002 55.4477 70.0002 56Z" fill="#9B0F15"/>
<path d="M67.2375 63.3798C66.6713 63.3798 66.2122 62.9319 66.2122 62.3795C66.2122 61.827 66.6713 61.3792 67.2375 61.3792C67.8038 61.3792 68.2628 61.827 68.2628 62.3795C68.2628 62.9319 67.8038 63.3798 67.2375 63.3798Z" fill="#DB1B24"/>
<path d="M63.3363 62.9795C62.632 62.9795 62.061 62.4224 62.061 61.7352C62.061 61.048 62.632 60.491 63.3363 60.491C64.0407 60.491 64.6117 61.048 64.6117 61.7352C64.6117 62.4224 64.0407 62.9795 63.3363 62.9795Z" fill="#DB1B24"/>
<path d="M65.0744 65.8244C64.7222 65.8244 64.4367 65.5458 64.4367 65.2022C64.4367 64.8586 64.7222 64.5801 65.0744 64.5801C65.4266 64.5801 65.7121 64.8586 65.7121 65.2022C65.7121 65.5458 65.4266 65.8244 65.0744 65.8244Z" fill="#DB1B24"/>
<path d="M63.974 59.2443C63.6218 59.2443 63.3363 58.9657 63.3363 58.6221C63.3363 58.2785 63.6218 58 63.974 58C64.3262 58 64.6117 58.2785 64.6117 58.6221C64.6117 58.9657 64.3262 59.2443 63.974 59.2443Z" fill="#DB1B24"/>
<path d="M60.623 65.2023C60.2708 65.2023 59.9853 64.9237 59.9853 64.5801C59.9853 64.2365 60.2708 63.958 60.623 63.958C60.9752 63.958 61.2607 64.2365 61.2607 64.5801C61.2607 64.9237 60.9752 65.2023 60.623 65.2023Z" fill="#DB1B24"/>
<path d="M59.9853 62.0014C59.6331 62.0014 59.3476 61.7228 59.3476 61.3792C59.3476 61.0356 59.6331 60.7571 59.9853 60.7571C60.3375 60.7571 60.623 61.0356 60.623 61.3792C60.623 61.7228 60.3375 62.0014 59.9853 62.0014Z" fill="#DB1B24"/>
<path d="M55.6379 69.2182C55.2857 69.2182 55.0002 68.9396 55.0002 68.596C55.0002 68.2524 55.2857 67.9739 55.6379 67.9739C55.9901 67.9739 56.2756 68.2524 56.2756 68.596C56.2756 68.9396 55.9901 69.2182 55.6379 69.2182Z" fill="#DB1B24"/>
<path d="M68.3254 66.8432C67.9732 66.8432 67.6877 66.5646 67.6877 66.221C67.6877 65.8774 67.9732 65.5989 68.3254 65.5989C68.6776 65.5989 68.9631 65.8774 68.9631 66.221C68.9631 66.5646 68.6776 66.8432 68.3254 66.8432Z" fill="#DB1B24"/>
<path d="M62.2985 68.2057C61.7254 68.2057 61.2607 67.7524 61.2607 67.1932C61.2607 66.634 61.7254 66.1807 62.2985 66.1807C62.8717 66.1807 63.3363 66.634 63.3363 67.1932C63.3363 67.7524 62.8717 68.2057 62.2985 68.2057Z" fill="#DB1B24"/>
<path d="M66.7499 69.2181C66.1767 69.2181 65.7121 68.7648 65.7121 68.2056C65.7121 67.6464 66.1767 67.1931 66.7499 67.1931C67.323 67.1931 67.7877 67.6464 67.7877 68.2056C67.7877 68.7648 67.323 69.2181 66.7499 69.2181Z" fill="#DB1B24"/>
<path d="M57.6721 67.2271C57.099 67.2271 56.6343 66.7738 56.6343 66.2146C56.6343 65.6555 57.099 65.2021 57.6721 65.2021C58.2453 65.2021 58.71 65.6555 58.71 66.2146C58.71 66.7738 58.2453 67.2271 57.6721 67.2271Z" fill="#DB1B24"/>
<path d="M59.3477 69.5255C58.9955 69.5255 58.71 69.247 58.71 68.9034C58.71 68.5598 58.9955 68.2812 59.3477 68.2812C59.6998 68.2812 59.9854 68.5598 59.9854 68.9034C59.9854 69.247 59.6998 69.5255 59.3477 69.5255Z" fill="#DB1B24"/>
<path fill-rule="evenodd" clip-rule="evenodd" d="M14.6252 56.4375C14.6252 55.8852 15.0729 55.4375 15.6252 55.4375H53.1252C53.6775 55.4375 54.1252 55.8852 54.1252 56.4375C54.1252 56.9898 53.6775 57.4375 53.1252 57.4375H16.6252V64.4375C16.6252 64.9898 16.1775 65.4375 15.6252 65.4375C15.0729 65.4375 14.6252 64.9898 14.6252 64.4375V56.4375Z" fill="#FE666D"/>
<path d="M44.5635 43.5925H40.9259V29.5708L36.5834 30.9176V27.9597L44.1733 25.241H44.5635V43.5925Z" fill="#FFEF9C"/>
<path fill-rule="evenodd" clip-rule="evenodd" d="M46.7116 43.5925C46.7116 44.7789 45.7499 45.7406 44.5635 45.7406H40.9259C39.7395 45.7406 38.7778 44.7789 38.7778 43.5925V32.4861L37.2198 32.9693C36.5679 33.1715 35.8587 33.0518 35.3092 32.6469C34.7597 32.2421 34.4353 31.6001 34.4353 30.9176V27.9597C34.4353 27.0526 35.0051 26.2432 35.859 25.9374L43.4489 23.2186C43.6813 23.1353 43.9264 23.0928 44.1733 23.0928H44.5635C45.7499 23.0928 46.7116 24.0545 46.7116 25.2409V43.5925ZM40.9259 29.5708V43.5925H44.5635V25.2409H44.1733L36.5835 27.9597V30.9176L40.9259 29.5708Z" fill="#E89B05"/>
</svg>
