<svg width="72" height="72" viewBox="0 0 72 72" fill="none" xmlns="http://www.w3.org/2000/svg">
<g clip-path="url(#clip0_12_443)">
<path d="M61.3054 40.4331C65.8772 40.4331 69.584 36.7286 69.584 32.1569C69.584 27.5852 65.877 23.8782 61.3054 23.8782C56.7348 23.8782 53.0278 27.5852 53.0278 32.1569C53.028 36.7286 56.7348 40.4331 61.3054 40.4331Z" fill="black"/>
<path d="M71.9053 48.4104C71.5364 46.1938 69.7042 43.0916 68.3174 41.7058C68.1347 41.5221 67.3182 41.4797 67.0977 41.6163C65.4117 42.6533 63.4311 43.2636 61.3054 43.2636C59.1821 43.2636 57.2014 42.6533 55.5152 41.6163C55.2937 41.4797 54.4783 41.5221 54.2957 41.7058C53.908 42.0935 53.485 42.6096 53.0725 43.2081C54.1884 45.309 55.0733 47.5407 55.3927 49.4625C55.7119 51.3891 55.6083 53.213 55.092 54.8757C56.9255 55.5391 59.1242 55.8302 61.3053 55.8302C66.9942 55.8302 72.8161 53.8576 71.9053 48.4104Z" fill="black"/>
<path d="M35.7872 36.9409C43.1963 36.9409 49.2032 30.934 49.2032 23.525C49.2032 16.1183 43.1963 10.1113 35.7872 10.1113C28.3793 10.1113 22.3746 16.1183 22.3746 23.525C22.3746 30.934 28.3792 36.9409 35.7872 36.9409Z" fill="black"/>
<path d="M47.1472 38.9957C46.8561 38.7059 45.5341 38.6317 45.1746 38.8542C42.4398 40.5369 39.2303 41.522 35.7872 41.522C32.3467 41.522 29.1356 40.5369 26.4022 38.8542C26.0429 38.6316 24.7209 38.7059 24.4298 38.9957C22.1768 41.2462 19.2075 46.2775 18.6102 49.8643C17.1372 58.6992 26.5743 61.8889 35.7872 61.8889C45.0026 61.8889 54.4396 58.6992 52.9667 49.8643C52.3693 46.2775 49.4 41.2462 47.1472 38.9957Z" fill="black"/>
<path d="M10.6944 40.4331C15.265 40.4331 18.9719 36.7286 18.9719 32.1569C18.9719 27.5852 15.265 23.8782 10.6944 23.8782C6.12252 23.8782 2.41565 27.5852 2.41565 32.1569C2.41565 36.7286 6.12252 40.4331 10.6944 40.4331Z" fill="black"/>
<path d="M16.185 49.4625C16.5245 47.4441 17.4823 45.0676 18.6831 42.87C18.3484 42.4129 18.0139 42.0146 17.7051 41.7058C17.5224 41.5221 16.707 41.4797 16.4856 41.6163C14.7993 42.6533 12.8186 43.2636 10.6943 43.2636C8.56977 43.2636 6.5878 42.6533 4.90298 41.6163C4.68248 41.4797 3.86488 41.5221 3.68221 41.7058C2.29185 43.0915 0.464429 46.1938 0.0943043 48.4104C-0.815258 53.8576 5.00549 55.83 10.6943 55.83C12.7245 55.83 14.7747 55.5801 16.5245 55.0088C15.9731 53.3121 15.8564 51.4456 16.185 49.4625Z" fill="black"/>
</g>
<defs>
<clipPath id="clip0_12_443">
<rect width="72" height="72" fill="white"/>
</clipPath>
</defs>
</svg>
